<svg xmlns="http://www.w3.org/2000/svg" viewBox="0 0 128.41 15.77"><defs><style>.cls-1{fill:#383939;}</style></defs><g id="Layer_2" data-name="Layer 2"><g id="Layer_1-2" data-name="Layer 1"><path class="cls-1" d="M74.84.91A2.92,2.92,0,0,1,77.71,3.5v0h1V3.48A3.88,3.88,0,0,0,72,1.22C71,2.33,71,3.41,71,6s0,3.7,1.06,4.81a3.88,3.88,0,0,0,6.68-2.26V8.52h-.94v.05a3,3,0,0,1-2.91,2.59,2.83,2.83,0,0,1-2.08-.88C72,9.45,71.91,8.57,71.91,6s.07-3.42.85-4.24A2.8,2.8,0,0,1,74.84.91Z"/><path class="cls-1" d="M83.27,3.8a2.87,2.87,0,0,0-2.14.89,4.62,4.62,0,0,0-1,3.25,4.6,4.6,0,0,0,1,3.24,3,3,0,0,0,4.28,0,4.6,4.6,0,0,0,1-3.24,4.62,4.62,0,0,0-1-3.25A2.87,2.87,0,0,0,83.27,3.8Zm0,7.42a2.13,2.13,0,0,1-1.53-.66,3.79,3.79,0,0,1-.66-2.62,3.82,3.82,0,0,1,.66-2.63,2.1,2.1,0,0,1,3.06,0,3.82,3.82,0,0,1,.66,2.63,3.79,3.79,0,0,1-.66,2.62A2.13,2.13,0,0,1,83.27,11.22Z"/><path class="cls-1" d="M96,3.8a2.89,2.89,0,0,0-2.57,1.4A2.61,2.61,0,0,0,91,3.8a2.82,2.82,0,0,0-2.19,1V3.9h-.91V12h.91V7c0-1.48.76-2.33,2.08-2.33s2,.83,2,2.33v5h.91V6.83A2,2,0,0,1,95.9,4.65c1.31,0,2,.83,2,2.33v5h.9V6.83A3.14,3.14,0,0,0,98,4.58,2.82,2.82,0,0,0,96,3.8Z"/><path class="cls-1" d="M103.67,3.8a2.51,2.51,0,0,0-2.19,1V3.9h-.91V15.77h.91V11.06a2.48,2.48,0,0,0,2.19,1,2.61,2.61,0,0,0,1.89-.71,4.92,4.92,0,0,0,1-3.42,4.93,4.93,0,0,0-1-3.43A2.65,2.65,0,0,0,103.67,3.8Zm-.11.85c1,0,2.08.38,2.08,3.29,0,1.52-.24,3.28-2.08,3.28-1,0-2.08-.38-2.08-3.28C101.48,6.41,101.72,4.65,103.56,4.65Z"/><path class="cls-1" d="M110.7,3.8A2.85,2.85,0,0,0,108,5.05l0,0,.67.6,0-.05a2.06,2.06,0,0,1,2-1c1.44,0,2.08.59,2.08,1.9v.83h-2.39c-1.69,0-2.69.88-2.69,2.35a2.45,2.45,0,0,0,.56,1.6,3.68,3.68,0,0,0,4.52-.07V12h.91V6.47C113.69,4.72,112.66,3.8,110.7,3.8Zm-.17,7.42c-1.33,0-1.92-.47-1.92-1.5s.61-1.55,1.87-1.55h2.3v1a2,2,0,0,1-.41,1.48A2.34,2.34,0,0,1,110.53,11.22Z"/><path class="cls-1" d="M118.34,3.8a2.82,2.82,0,0,0-2.18,1V3.9h-.91V12h.91V7c0-1.48.76-2.33,2.08-2.33s2,.83,2,2.33v5h.92V6.83a3.14,3.14,0,0,0-.8-2.25A2.75,2.75,0,0,0,118.34,3.8Z"/><path class="cls-1" d="M127.41,3.9l-2.23,6.85L123,3.94v0h-1l2.78,8-.61,1.75c-.28.79-.51,1.06-1.33,1.06h-.35v.85h.43a2,2,0,0,0,1.47-.53,2,2,0,0,0,.53-.94l3.54-10.2Z"/><path class="cls-1" d="M3.64,11.92H0V.08H3.69C6,.2,7.16,1.58,7.16,3A2.83,2.83,0,0,1,5.57,5.48v0A2.87,2.87,0,0,1,7.72,8.36C7.72,10.05,6.54,11.92,3.64,11.92Zm-.48-10H2.11V5H3.39A1.62,1.62,0,0,0,5.05,3.44C5.07,2.49,4.33,1.91,3.16,1.91Zm.38,4.9H2.11v3.27H3.45c1.41,0,2.11-.64,2.11-1.72C5.56,7.44,4.83,6.81,3.54,6.81Z"/><path class="cls-1" d="M16.43,11.92,15.3,9H11.2l-1.06,3H8.06L12.53,0h1.53l4.62,11.9ZM13.71,4.46A13.1,13.1,0,0,1,13.28,3h0a9.73,9.73,0,0,1-.42,1.43l-1,2.75h2.79Z"/><path class="cls-1" d="M26,11.92a34.91,34.91,0,0,0-2.79-4.51l0,0a.61.61,0,0,0-.33-.12H22v4.67H19.86V.08H23C25.67.06,27,1.6,27,3.42a3.38,3.38,0,0,1-2.11,3.11h0c.53.33,1.68,2.37,3.42,5.37ZM23,1.91H22V5.54H23a2.24,2.24,0,0,0,.8-.12A1.77,1.77,0,0,0,25,3.67a1.68,1.68,0,0,0-.65-1.49A2.2,2.2,0,0,0,23,1.91Z"/><path class="cls-1" d="M37.21,10.79a4.91,4.91,0,0,1-3.69,1.31,4.86,4.86,0,0,1-3.58-1.17,4.64,4.64,0,0,1-1.13-3.36V.08h2.11V7.43a3,3,0,0,0,.68,2.08,2.55,2.55,0,0,0,1.95.74,2.71,2.71,0,0,0,2.09-.74,2.83,2.83,0,0,0,.61-2V.08h2.11V7.46A4.69,4.69,0,0,1,37.21,10.79Z"/><path class="cls-1" d="M48.47,11.92,43.56,5c-.45-.64-1-1.36-1-1.37l-.08-.06c0,.4,0,1,0,1.55v6.84H40.43V.08h2.14l4.74,6.66c.5.68,1,1.4,1,1.41a.22.22,0,0,0,.07.06c0-.52,0-1,0-1.54V.08h2.09V11.92Z"/><path class="cls-1" d="M60.53,11.92,55.62,5c-.45-.64-1-1.36-1-1.37a.35.35,0,0,0-.08-.06c0,.4.05,1,.05,1.55v6.84H52.49V.08h2.14l4.74,6.66c.5.68,1,1.4,1,1.41a.22.22,0,0,0,.07.06c0-.52,0-1,0-1.54V.08h2.1V11.92Z"/><path class="cls-1" d="M66.28,8a2,2,0,1,0,2,2A2,2,0,0,0,66.28,8Zm0,3a1,1,0,1,1,1-1A1,1,0,0,1,66.28,11Z"/></g></g></svg>