<svg xmlns="http://www.w3.org/2000/svg" viewBox="0 0 200.89 23.55"><defs><style>.cls-1{fill:#fff;}</style></defs><g id="Layer_2" data-name="Layer 2"><g id="Layer_1-2" data-name="Layer 1"><g id="Layer_2-2" data-name="Layer 2"><g id="레이어_1" data-name="레이어 1"><path class="cls-1" d="M0,0H7.49c4.11,0,6.32,2.34,6.32,5.68a5,5,0,0,1-3.32,5.05,5.75,5.75,0,0,1,4.09,5.71c0,4.62-3.23,6.66-7,6.66H0ZM6.94,9.93c3.71,0,5.12-1.48,5.12-4.15,0-2.28-1.47-4.13-4.48-4.13H1.63V9.93ZM1.63,21.45h6c2.82,0,5.19-1.51,5.19-4.91,0-2.94-1.75-5-6.08-5H1.63Z"/><path class="cls-1" d="M28.36,20a20.49,20.49,0,0,0,.21,3.13H27.1a10.87,10.87,0,0,1-.28-2.54c-.52,1.22-1.87,2.94-5,2.94a4.73,4.73,0,0,1-5.08-4.35,4,4,0,0,1,0-.6c0-3.63,2.6-5.28,7.21-5.28h2.91V11.58c0-1.65-.46-3.86-4-3.86-3.1,0-3.56,1.75-3.89,3.1H17.43c.19-1.81,1.23-4.61,5.46-4.61,3.5,0,5.47,1.58,5.47,5.21Zm-1.51-5.28h-3c-3.4,0-5.52,1-5.52,3.79A3.3,3.3,0,0,0,21.45,22a2.67,2.67,0,0,0,.4,0c4.39,0,5-3.13,5-6.7Z"/><path class="cls-1" d="M32.33,11.09V6.6h1.5c0,.53.06,1.59.06,3.7A5.87,5.87,0,0,1,39.2,6.21V8c-3.19.23-5.34,2.6-5.34,6.53V23.1H32.33Z"/><path class="cls-1" d="M53.39,18.29V23.1H52a27.43,27.43,0,0,1-.09-2.87c-.65,1.95-2.21,3.27-5,3.27-2.2,0-5-.92-5-6V6.6h1.51V17.13c0,2.41.7,4.75,3.74,4.75,3.44,0,4.73-2.08,4.73-6.8V6.6h1.53Z"/><path class="cls-1" d="M56.89,10.76V6.6h1.5c.06.53.09,2.68.06,3.14a5,5,0,0,1,5.1-3.54c2.73,0,5.15,1.66,5.15,6.21V23.1H67.14V12.67c0-2.93-1.14-4.85-3.81-4.85-3.65,0-4.91,3.27-4.91,6.87V23.1H56.89Z"/><path class="cls-1" d="M73.12,18.55A4.12,4.12,0,0,0,77.47,22c2.74,0,3.84-1.35,3.84-3.2s-.74-2.8-4.17-3.7c-4-1-4.94-2.31-4.94-4.49s1.59-4.38,5.06-4.38a5,5,0,0,1,5.37,4.6v0H81.1a3.7,3.7,0,0,0-3.9-3.11c-2.67,0-3.44,1.42-3.44,2.74,0,1.52.74,2.28,3.78,3.07,4.32,1.12,5.4,2.64,5.4,5.12,0,3-2.27,4.85-5.5,4.85-3.49,0-5.46-2-5.89-4.95Z"/><path class="cls-1" d="M98.86,14.82c0,4.59-2.36,8.68-6.93,8.68-4.14,0-6.72-3.66-6.72-8.65,0-4.72,2.42-8.64,6.87-8.64,4.08,0,6.78,3.43,6.78,8.61m-12,0c0,3.93,2,7.1,5.22,7.1s5.19-2.94,5.19-7.1C97.24,11,95.4,7.76,92,7.76s-5.16,3.13-5.16,7.09"/><path class="cls-1" d="M101.75,10.76V6.6h1.5c.06.53.09,2.68.06,3.14a5,5,0,0,1,5.1-3.54c2.73,0,5.15,1.66,5.15,6.21V23.1H112V12.67c0-2.93-1.14-4.85-3.81-4.85-3.65,0-4.91,3.27-4.91,6.87V23.1h-1.53Z"/><path class="cls-1" d="M150.17,9.7a2.69,2.69,0,0,0-1.65.49,3.92,3.92,0,0,0-1.09,1.27,5.37,5.37,0,0,0-.59,1.7,9.59,9.59,0,0,0-.18,1.85,9.08,9.08,0,0,0,.18,1.8,5.71,5.71,0,0,0,.56,1.66,3.66,3.66,0,0,0,1.06,1.22,2.7,2.7,0,0,0,1.63.47,2.89,2.89,0,0,0,2.27-.9,4.42,4.42,0,0,0,1-2.42h4a7.7,7.7,0,0,1-2.32,5,7.06,7.06,0,0,1-4.91,1.7A7.66,7.66,0,0,1,147,22.9a7.06,7.06,0,0,1-2.4-1.72,8.12,8.12,0,0,1-1.53-2.64,9.88,9.88,0,0,1-.55-3.37,12,12,0,0,1,.5-3.53,8.12,8.12,0,0,1,1.5-2.81A6.8,6.8,0,0,1,147,7a7.57,7.57,0,0,1,3.25-.66,8.93,8.93,0,0,1,2.57.38A6.67,6.67,0,0,1,155,7.85a6,6,0,0,1,1.58,1.93,6.5,6.5,0,0,1,.7,2.73h-4C153,10.64,152,9.7,150.23,9.7"/><path class="cls-1" d="M159.22,11.79A5.55,5.55,0,0,1,160,9.16a5.07,5.07,0,0,1,1.62-1.67,6.83,6.83,0,0,1,2.22-.9,11.49,11.49,0,0,1,2.48-.27,15.94,15.94,0,0,1,2.29.17,6.83,6.83,0,0,1,2.12.68,4.31,4.31,0,0,1,1.56,1.41A4.14,4.14,0,0,1,172.9,11v8.51a18.7,18.7,0,0,0,.12,2.12,4,4,0,0,0,.4,1.51H169.2a6.66,6.66,0,0,1-.19-.77,7.46,7.46,0,0,1-.1-.81,5.24,5.24,0,0,1-2.32,1.55,8.45,8.45,0,0,1-2.73.45,6.77,6.77,0,0,1-2-.29,4.22,4.22,0,0,1-1.62-.89,4,4,0,0,1-1.09-1.51,5.4,5.4,0,0,1-.39-2.18,5.15,5.15,0,0,1,.45-2.29,3.88,3.88,0,0,1,1.16-1.44,4.93,4.93,0,0,1,1.62-.81,16.38,16.38,0,0,1,1.84-.43c.62-.1,1.23-.19,1.83-.25a10.58,10.58,0,0,0,1.59-.28,2.72,2.72,0,0,0,1.11-.56,1.27,1.27,0,0,0,.37-1.06,2.53,2.53,0,0,0-.21-1.15,1.76,1.76,0,0,0-.58-.66,2.2,2.2,0,0,0-.85-.32,6.74,6.74,0,0,0-1-.08,2.92,2.92,0,0,0-1.91.57,2.66,2.66,0,0,0-.81,1.9Zm9.51,3.32a1.66,1.66,0,0,1-.65.39,5.8,5.8,0,0,1-.84.24c-.3.06-.61.12-.94.16l-1,.15a7.25,7.25,0,0,0-.91.26,2.61,2.61,0,0,0-.79.42,2.19,2.19,0,0,0-.53.68,2.38,2.38,0,0,0-.21,1.05,2.14,2.14,0,0,0,.21,1,1.64,1.64,0,0,0,.55.65,2.39,2.39,0,0,0,.81.33,5.55,5.55,0,0,0,1,.09,3.33,3.33,0,0,0,1.88-.44,2.75,2.75,0,0,0,1-1.06,3.64,3.64,0,0,0,.39-1.25,8.4,8.4,0,0,0,.07-1Z"/><path class="cls-1" d="M179.69,6.76v3h.06a5.93,5.93,0,0,1,.79-1.41,5.17,5.17,0,0,1,1.13-1.11A5.54,5.54,0,0,1,183,6.57a4.6,4.6,0,0,1,1.51-.25,2.75,2.75,0,0,1,.9.16v4.17c-.2,0-.43-.08-.7-.11h-.78A4.13,4.13,0,0,0,182,11,3.47,3.47,0,0,0,180.78,12a4.82,4.82,0,0,0-.68,1.66,10.2,10.2,0,0,0-.2,2.06V23.1h-4.12V6.76Z"/><path class="cls-1" d="M196.92,21a4.38,4.38,0,0,1-1.9,1.91,6.44,6.44,0,0,1-5.65-.13,6,6,0,0,1-2.1-1.92,9.28,9.28,0,0,1-1.25-2.8,13,13,0,0,1-.42-3.29,12.24,12.24,0,0,1,.42-3.18,8.63,8.63,0,0,1,1.25-2.7A6.27,6.27,0,0,1,189.38,7a5.77,5.77,0,0,1,2.9-.71,5.48,5.48,0,0,1,2.54.62,4.54,4.54,0,0,1,1.9,1.81h.06V.53h4.11V23.1H197V21Zm-.17-8.08a5.06,5.06,0,0,0-.6-1.64,3.46,3.46,0,0,0-1.09-1.16,3,3,0,0,0-1.68-.44,3.21,3.21,0,0,0-1.71.44,3.36,3.36,0,0,0-1.11,1.17A4.92,4.92,0,0,0,190,13a9.84,9.84,0,0,0-.19,1.95,8.55,8.55,0,0,0,.2,1.89,5.34,5.34,0,0,0,.65,1.69,3.84,3.84,0,0,0,1.13,1.21,2.88,2.88,0,0,0,1.64.45,3,3,0,0,0,1.7-.44,3.25,3.25,0,0,0,1.09-1.18,5.7,5.7,0,0,0,.58-1.7,11.18,11.18,0,0,0,.17-2,11.47,11.47,0,0,0-.17-1.94"/><polygon class="cls-1" points="134.23 0.39 128.75 17.8 123.15 0.49 123.11 0.39 117.75 0.39 117.75 23.08 121.5 23.08 121.5 6.45 127.01 22.98 127.04 23.08 130.25 23.08 135.79 6.44 135.79 23.08 139.54 23.08 139.54 0.39 134.23 0.39"/></g></g></g></g></svg>