<?xml version="1.0" encoding="UTF-8"?><svg xmlns="http://www.w3.org/2000/svg" viewBox="0 0 150.24 150.24"><defs><style>.d{fill:#f9e8e9;}.e{fill:#407060;}</style></defs><g id="a"/><g id="b"><g id="c"><circle class="d" cx="75.12" cy="75.12" r="75.12"/><path class="e" d="M99.244,45.126c-3.574-1.822-8.226-2.745-13.827-2.745l-3.199,.003c-1.7,.183-3.238,.275-4.571,.275h-6.291c-2.401,0-4.324-.031-5.714-.092-2.823-.125-4.646-.186-5.572-.186-.668,0-2.443,0-2.443,1.17,0,.533,.342,1.167,1.932,1.167h.006l4.989,.418c1.782,.174,2.417,.576,2.417,.895,0,.276-.248,1.354-1.907,5.473l-18.682,46.384c-.799,1.848-1.377,3.227-1.718,4.099-.312,.794-.784,1.573-1.404,2.318-.479,.329-1.743,.705-5.022,.705-1.366,0-2.349,.032-2.944,.099-1.415,.219-1.626,.983-1.626,1.419,0,.4,.175,1.332,1.795,1.332,.749,0,1.42-.062,1.997-.185h5.131c7.399-.061,12.083-.093,14.062-.093,6.464-.061,11.094-.296,13.761-.701,2.667-.403,5.938-1.333,9.723-2.764,8.749-3.298,15.876-8.679,21.182-15.992,5.312-7.321,8.005-15.52,8.005-24.369s-3.389-15.084-10.078-18.631Zm-3.469,32.727c-2.249,5.774-5.359,10.857-9.25,15.111-7.082,7.87-16.356,11.86-27.566,11.86-4.436,0-4.496-.848-4.498-.848,.025-.156,.296-1.057,2.28-6.054l17.487-44.226c.482-1.267,1.317-3.152,2.483-5.61,1.017-2.189,1.614-2.464,1.772-2.496,1.198-.239,3.032-.36,5.453-.36,4.546,0,8.112,1.021,10.602,3.035,3.069,2.479,4.625,6.674,4.625,12.469,0,5.582-1.141,11.341-3.389,17.118Z"/></g></g></svg>