<svg xmlns="http://www.w3.org/2000/svg" viewBox="0 0 48 28.41"><defs><style>.cls-1{fill:#333;}.cls-2{fill:#fff;}</style></defs><g id="Layer_2" data-name="Layer 2"><g id="Layer_1-2" data-name="Layer 1"><rect class="cls-1" width="48" height="24" rx="6.69"/><path class="cls-2" d="M12.11,15.4l1-1.12a4,4,0,0,0,2.74,1.22c1.25,0,2-.59,2-1.46s-.7-1.23-1.65-1.65l-1.43-.62a3,3,0,0,1-2.1-2.7C12.58,7.45,14,6.23,16,6.23a4.4,4.4,0,0,1,3.12,1.3l-.85,1A3.28,3.28,0,0,0,16,7.64c-1.05,0-1.74.51-1.74,1.32s.83,1.23,1.67,1.57l1.41.6a2.88,2.88,0,0,1,2.1,2.79c0,1.65-1.37,3-3.63,3A5.17,5.17,0,0,1,12.11,15.4Z"/><path class="cls-2" d="M21.21,6.41h6.1V7.78H22.84v2.87h3.78V12H22.84v3.33h4.62v1.37H21.21Z"/><path class="cls-2" d="M31.58,7.78h-3V6.41h7.69V7.78h-3v9H31.58Z"/><rect class="cls-1" x="19.77" y="18.2" width="8.73" height="8.73" rx="0.79" transform="translate(-8.88 23.67) rotate(-45)"/></g></g></svg>