<svg xmlns="http://www.w3.org/2000/svg" viewBox="0 0 152.7 152.71"><defs><style>.cls-1{fill:#123f6d;}.cls-2{fill:#fff;}</style></defs><g id="Layer_2" data-name="Layer 2"><g id="Layer_1-2" data-name="Layer 1"><path class="cls-1" d="M39.93,35.76a32,32,0,0,1,6.53.07A68.2,68.2,0,0,1,61.25,27.7h0s27.19-13.09,52.71.18c.51.26,1,.54,1.51.82,1,.59,2.09,1.2,3.13,1.89.33-.22.67-.45,1-.65a58.38,58.38,0,0,1,12.54-5.71A76.33,76.33,0,0,0,2.2,58.14C11.93,46.28,26,37.5,39.93,35.76Z"/><path class="cls-1" d="M23.43,120.13a48.34,48.34,0,0,0,10.86-.78C27,109.08,22.92,95.51,23.94,79.22A57.23,57.23,0,0,1,41.56,41c-.75.08-1.47.14-2.27.26a39.71,39.71,0,0,0-9.76,3A59.5,59.5,0,0,0,24.24,47l-.19.12c-.62.37-1.22.76-1.81,1.15A55,55,0,0,0,6,65.79a47.34,47.34,0,0,0-5.43,20,75.75,75.75,0,0,0,9.28,28.14C12,116.27,16.12,119.38,23.43,120.13Z"/><path class="cls-1" d="M93.05,74.75c1-1.68,1-1.83,2-3.51Z"/><path class="cls-1" d="M114.89,66.61s14.78-16.25,3.16-30.14c-.61.56-1.24,1.1-1.86,1.71-7.43,9.23-14.61,21.9-21.13,33.06C97.87,73,107.24,75.6,114.89,66.61Z"/><path class="cls-1" d="M65.55,96.91A199,199,0,0,0,81.29,75.38s9.09-13.7,10.43-15.64c0,0,11.06-17,23.08-26.49-.29-.25-.56-.48-.87-.73,0,0-26.28-17.32-59.39,5.15a26.24,26.24,0,0,1,15.6,15H67.72S64,42.58,50.13,40.91c-.76.58-1.51,1.15-2.27,1.79-22.35,18.44-24.7,53.2-8.92,75.4C44.33,116.08,55.24,110.6,65.55,96.91Z"/><path class="cls-1" d="M134.22,26.58A45.78,45.78,0,0,0,122,33.23c.9.79,1.77,1.6,2.61,2.49a25,25,0,0,1,5,27.66S118.08,88.5,93.05,74.75c-8.17,13.69-17.14,27-29.59,36.45l.16,0a54.41,54.41,0,0,1-20.75,11.79,46.73,46.73,0,0,0,20.33,13s14.65,4.68,26.5-2.27l2.74,1.13s-8.89,10.67-31.51,3.72a51,51,0,0,1-22.77-14.4,47.93,47.93,0,0,1-21.88-.67A76.33,76.33,0,1,0,134.22,26.58Z"/><path class="cls-2" d="M38.16,124.11a51,51,0,0,0,22.77,14.4c22.62,7,31.51-3.72,31.51-3.72l-2.74-1.13c-11.85,7-26.5,2.27-26.5,2.27a46.73,46.73,0,0,1-20.33-13,54.41,54.41,0,0,0,20.75-11.79l-.16,0c12.45-9.49,21.42-22.76,29.59-36.45l2-3.51c6.52-11.16,13.7-23.83,21.13-33.06.62-.61,1.25-1.15,1.86-1.71,11.62,13.89-3.16,30.14-3.16,30.14-7.65,9-17,6.42-19.83,4.63-1,1.68-1,1.83-2,3.51,25,13.75,36.56-11.37,36.56-11.37a25,25,0,0,0-5-27.66c-.84-.89-1.71-1.7-2.61-2.49a45.78,45.78,0,0,1,12.24-6.65c-.68-.8-1.39-1.58-2.1-2.35a58.38,58.38,0,0,0-12.54,5.71c-.33.2-.67.43-1,.65-1-.69-2.08-1.3-3.13-1.89-.49-.28-1-.56-1.51-.82-25.52-13.27-52.71-.18-52.71-.18h0a68.2,68.2,0,0,0-14.79,8.13,32,32,0,0,0-6.53-.07C26,37.5,11.93,46.28,2.2,58.14A76.88,76.88,0,0,0,0,76.35a75.15,75.15,0,0,0,.6,9.42A47.34,47.34,0,0,1,6,65.79,55,55,0,0,1,22.24,48.27c.59-.39,1.19-.78,1.81-1.15l.19-.12a59.5,59.5,0,0,1,5.29-2.79,39.71,39.71,0,0,1,9.76-3c.8-.12,1.52-.18,2.27-.26A57.23,57.23,0,0,0,23.94,79.22c-1,16.29,3,29.86,10.35,40.13a48.34,48.34,0,0,1-10.86.78c-7.31-.75-11.42-3.86-13.55-6.22a75.16,75.16,0,0,0,6.4,9.53A47.93,47.93,0,0,0,38.16,124.11Zm9.7-81.41c.76-.64,1.51-1.21,2.27-1.79C64,42.58,67.72,52.72,67.72,52.72h2.42a26.24,26.24,0,0,0-15.6-15c33.11-22.47,59.39-5.15,59.39-5.15.31.25.58.48.87.73-12,9.48-23.08,26.49-23.08,26.49-1.34,1.94-10.43,15.64-10.43,15.64A199,199,0,0,1,65.55,96.91C55.24,110.6,44.33,116.08,38.94,118.1,23.16,95.9,25.51,61.14,47.86,42.7Z"/></g></g></svg>