<svg xmlns="http://www.w3.org/2000/svg" viewBox="0 0 34.98 24.6"><defs><style>.cls-1{fill:#7785f1;}</style></defs><g id="Layer_2" data-name="Layer 2"><g id="Layer_1-2" data-name="Layer 1"><path class="cls-1" d="M34.68,9.42A2.89,2.89,0,0,0,33,7.93L10.74.16A2.93,2.93,0,0,0,7,2L4.54,9H6.66L8.89,2.63a.93.93,0,0,1,1.19-.58L32.35,9.82a.91.91,0,0,1,.53.47.88.88,0,0,1,0,.71L29.1,22a.94.94,0,0,1-1.19.57l-.33-.12v.66a2.39,2.39,0,0,1-.4,1.32l.07,0A3,3,0,0,0,31,22.64l3.82-11A2.91,2.91,0,0,0,34.68,9.42Z"/><path class="cls-1" d="M11.77,18.29c.06.37.08.64.11.81h0s0-.09,0-.18l.12-.6c.06-.31.11-.55.15-.75h-.52C11.68,17.67,11.72,17.91,11.77,18.29Z"/><polygon class="cls-1" points="13 16.96 13.43 16.96 13.23 15.86 13 16.96"/><path class="cls-1" d="M14.42,18.12c.06.34.1.56.19,1h0c0-.17.08-.66.19-1.53h-.52C14.35,17.77,14.38,18,14.42,18.12Z"/><path class="cls-1" d="M25,10H1.43A1.43,1.43,0,0,0,0,11.47V23.09a1.43,1.43,0,0,0,1.43,1.43H25a1.47,1.47,0,0,0,1-.45,1.44,1.44,0,0,0,.39-1V11.47A1.43,1.43,0,0,0,25,10ZM16.5,17.57h-.8l-.46,2.68H14.08l-.17-.88c-.11-.51-.24-1.18-.36-1.8h-.66l-.35,1.8-.18.88H11.24l-.47-2.68H10V17h.7l-.47-2.66h1.05L11.6,17h.72c0-.28.16-.81.32-1.58l.16-.72h.92l.15.72c.16.77.27,1.3.32,1.58h.73l.35-2.66h1L15.79,17h.71Z"/></g></g></svg>