<svg xmlns="http://www.w3.org/2000/svg" width="194.004" height="12.143" viewBox="0 0 194.004 12.143">
  <g id="그룹_413" data-name="그룹 413" transform="translate(-30 -469.857)">
    <g id="Layer_2" data-name="Layer 2" transform="translate(30 470.025)">
      <g id="Layer_1" data-name="Layer 1" transform="translate(0 -0.025)">
        <path id="패스_57" data-name="패스 57" d="M73.917.685A2.218,2.218,0,0,1,76.1,2.653h.76V2.638A2.948,2.948,0,0,0,71.76.921C71,1.764,71,2.585,71,4.552s0,2.811.805,3.654A2.948,2.948,0,0,0,76.88,6.49V6.467h-.714V6.5a2.279,2.279,0,0,1-2.211,1.968,2.15,2.15,0,0,1-1.58-.669c-.615-.631-.684-1.3-.684-3.252s.053-2.6.646-3.221a2.127,2.127,0,0,1,1.58-.646Z" transform="translate(-17.06 0.025)" fill="#383939"/>
        <path id="패스_58" data-name="패스 58" d="M82.512,3.8a2.18,2.18,0,0,0-1.626.676,3.51,3.51,0,0,0-.76,2.469,3.5,3.5,0,0,0,.76,2.461,2.279,2.279,0,0,0,3.252,0,3.5,3.5,0,0,0,.76-2.461,3.51,3.51,0,0,0-.76-2.469A2.18,2.18,0,0,0,82.512,3.8Zm0,5.637a1.618,1.618,0,0,1-1.162-.5,2.879,2.879,0,0,1-.5-1.99,2.9,2.9,0,0,1,.5-2,1.6,1.6,0,0,1,2.325,0,2.9,2.9,0,0,1,.5,2,2.879,2.879,0,0,1-.5,1.99A1.618,1.618,0,0,1,82.512,9.437Z" transform="translate(-19.25 -0.894)" fill="#383939"/>
        <path id="패스_59" data-name="패스 59" d="M94.054,3.8A2.2,2.2,0,0,0,92.1,4.863,1.983,1.983,0,0,0,90.255,3.8a2.142,2.142,0,0,0-1.664.76V3.875H87.9v6.154h.691V6.23c0-1.124.577-1.77,1.58-1.77s1.519.631,1.519,1.77v3.8h.691V6.1a1.519,1.519,0,0,1,1.6-1.656c1,0,1.519.631,1.519,1.77v3.8h.684V6.1a2.386,2.386,0,0,0-.608-1.709A2.142,2.142,0,0,0,94.054,3.8Z" transform="translate(-21.12 -0.893)" fill="#383939"/>
        <path id="패스_60" data-name="패스 60" d="M102.925,3.8a1.907,1.907,0,0,0-1.664.76V3.874h-.691v9.018h.691V9.314a1.884,1.884,0,0,0,1.664.76,1.983,1.983,0,0,0,1.436-.539,3.738,3.738,0,0,0,.76-2.6,3.745,3.745,0,0,0-.76-2.606,2.013,2.013,0,0,0-1.436-.532Zm-.084.646c.76,0,1.58.289,1.58,2.5,0,1.155-.182,2.492-1.58,2.492-.76,0-1.58-.289-1.58-2.492C101.261,5.781,101.444,4.444,102.842,4.444Z" transform="translate(-24.165 -0.892)" fill="#383939"/>
        <path id="패스_61" data-name="패스 61" d="M109.972,3.8a2.165,2.165,0,0,0-2.051.95h0l.509.456V5.163a1.565,1.565,0,0,1,1.519-.76c1.094,0,1.58.448,1.58,1.443v.631h-1.816c-1.284,0-2.044.669-2.044,1.785a1.861,1.861,0,0,0,.425,1.216,2.8,2.8,0,0,0,3.434-.053v.6h.691v-4.2C112.243,4.494,111.461,3.8,109.972,3.8Zm-.129,5.637c-1.01,0-1.459-.357-1.459-1.14s.463-1.178,1.421-1.178h1.747v.76A1.519,1.519,0,0,1,111.241,9a1.778,1.778,0,0,1-1.4.433Z" transform="translate(-25.871 -0.889)" fill="#383939"/>
        <path id="패스_62" data-name="패스 62" d="M117.6,3.8a2.142,2.142,0,0,0-1.656.76V3.876h-.691v6.154h.691v-3.8c0-1.124.577-1.77,1.58-1.77s1.519.631,1.519,1.77v3.8h.7V6.1a2.386,2.386,0,0,0-.608-1.709A2.089,2.089,0,0,0,117.6,3.8Z" transform="translate(-27.692 -0.893)" fill="#383939"/>
        <path id="패스_63" data-name="패스 63" d="M126.11,3.9l-1.694,5.2L122.76,3.93H122l2.112,6.078-.463,1.33c-.213.6-.387.805-1.01.805h-.266v.646h.327a1.444,1.444,0,0,0,1.519-1.117l2.689-7.749Z" transform="translate(-29.314 -0.918)" fill="#383939"/>
        <path id="패스_64" data-name="패스 64" d="M2.765,9.075H0v-9H2.8C4.558.171,5.44,1.22,5.44,2.3A2.15,2.15,0,0,1,4.232,4.182h0A2.18,2.18,0,0,1,5.865,6.37C5.865,7.654,4.969,9.075,2.765,9.075ZM2.4,1.478H1.6v2.34h.972A1.231,1.231,0,0,0,3.837,2.633C3.852,1.911,3.29,1.47,2.4,1.47ZM2.689,5.2H1.6V7.685H2.621c1.071,0,1.6-.486,1.6-1.307,0-.707-.555-1.185-1.535-1.185Z" transform="translate(0 0)" fill="#383939"/>
        <path id="패스_65" data-name="패스 65" d="M14.419,9.056,13.56,6.837H10.446L9.64,9.117H8.06L11.456,0h1.162l3.51,9.041ZM12.352,3.388a9.953,9.953,0,0,1-.327-1.109h0a7.392,7.392,0,0,1-.319,1.086l-.76,2.089h2.12Z" transform="translate(-1.937 0.019)" fill="#383939"/>
        <path id="패스_66" data-name="패스 66" d="M24.525,9.075a26.521,26.521,0,0,0-2.12-3.426h0a.463.463,0,0,0-.251-.091h-.669V9.105H19.86V.08h2.386c2.028-.015,3.039,1.155,3.039,2.537a2.568,2.568,0,0,1-1.6,2.363h0c.4.251,1.276,1.8,2.6,4.08Zm-2.279-7.6h-.76V4.228h.76a1.7,1.7,0,0,0,.608-.091,1.345,1.345,0,0,0,.912-1.33,1.276,1.276,0,0,0-.494-1.132,1.671,1.671,0,0,0-1.026-.205Z" transform="translate(-4.772 0)" fill="#383939"/>
        <path id="패스_67" data-name="패스 67" d="M35.189,8.217a3.73,3.73,0,0,1-2.8,1,3.692,3.692,0,0,1-2.72-.889,3.525,3.525,0,0,1-.858-2.553V.08h1.6V5.664a2.279,2.279,0,0,0,.517,1.58,1.937,1.937,0,0,0,1.481.562A2.059,2.059,0,0,0,34,7.244a2.15,2.15,0,0,0,.463-1.519V.08h1.6V5.687a3.563,3.563,0,0,1-.874,2.53Z" transform="translate(-6.92 0)" fill="#383939"/>
        <path id="패스_68" data-name="패스 68" d="M46.538,9.075l-3.73-5.257c-.342-.486-.76-1.033-.76-1.041l-.061-.046V9.105H40.43V.08h1.626l3.6,5.06c.38.517.76,1.064.76,1.071a.167.167,0,0,0,.053.046V.08h1.588v9Z" transform="translate(-9.714 0)" fill="#383939"/>
        <path id="패스_69" data-name="패스 69" d="M58.6,9.075l-3.73-5.257c-.342-.486-.76-1.033-.76-1.041a.266.266,0,0,0-.061-.046c0,.3.038.76.038,1.178v5.2h-1.6V.08h1.626l3.6,5.06c.38.517.76,1.064.76,1.071a.167.167,0,0,0,.053.046V.08h1.6v9Z" transform="translate(-12.612 0)" fill="#383939"/>
        <path id="패스_70" data-name="패스 70" d="M65.8,8a1.519,1.519,0,1,0,1.519,1.519A1.519,1.519,0,0,0,65.8,8Zm0,2.279a.76.76,0,1,1,.76-.76A.76.76,0,0,1,65.8,10.279Z" transform="translate(-15.445 -1.903)" fill="#383939"/>
      </g>
    </g>
    <g id="Layer_2-2" data-name="Layer 2" transform="translate(145 470)">
      <g id="레이어_1" data-name="레이어 1">
        <path id="패스_71" data-name="패스 71" d="M0,0H2.946A2.189,2.189,0,0,1,5.431,2.234,1.966,1.966,0,0,1,4.125,4.22,2.261,2.261,0,0,1,5.734,6.465,2.5,2.5,0,0,1,2.981,9.085H0ZM2.729,3.905c1.459,0,2.014-.582,2.014-1.632A1.578,1.578,0,0,0,2.981.649H.641V3.905ZM.641,8.436H3A1.842,1.842,0,0,0,5.042,6.5c0-1.156-.688-1.966-2.391-1.966H.641Z" fill="#212322"/>
        <path id="패스_72" data-name="패스 72" d="M21.3,11.633a8.129,8.129,0,0,0,.083,1.231H20.8a4.291,4.291,0,0,1-.11-1,1.965,1.965,0,0,1-1.966,1.156,1.86,1.86,0,0,1-2-1.947C16.726,9.647,17.749,9,19.562,9h1.144V8.322c0-.649-.181-1.518-1.573-1.518A1.339,1.339,0,0,0,17.6,8.023H17A1.925,1.925,0,0,1,19.149,6.21c1.376,0,2.151.621,2.151,2.049Zm-.594-2.076h-1.18c-1.337,0-2.171.393-2.171,1.491A1.3,1.3,0,0,0,18.74,12.42c1.726,0,1.966-1.231,1.966-2.635Z" transform="translate(-10.147 -3.768)" fill="#212322"/>
        <path id="패스_73" data-name="패스 73" d="M32.33,8.129V6.363h.59c0,.208.024.625.024,1.455A2.3,2.3,0,0,1,35.032,6.21v.7a2.286,2.286,0,0,0-2.1,2.568v3.37h-.6Z" transform="translate(-19.616 -3.768)" fill="#212322"/>
        <path id="패스_74" data-name="패스 74" d="M46.425,11.2v1.892h-.547a10.272,10.272,0,0,1-.035-1.129,1.865,1.865,0,0,1-1.966,1.286c-.865,0-1.966-.362-1.966-2.36V6.6H42.5v4.141c0,.948.275,1.868,1.471,1.868,1.353,0,1.86-.818,1.86-2.674V6.6h.6Z" transform="translate(-25.428 -4.004)" fill="#212322"/>
        <path id="패스_75" data-name="패스 75" d="M56.89,7.987V6.351h.59c.024.208.035,1.054.024,1.235a1.966,1.966,0,0,1,2.006-1.392c1.074,0,2.025.653,2.025,2.442v4.2h-.614v-4.1c0-1.152-.448-1.907-1.5-1.907-1.435,0-1.931,1.286-1.931,2.7V12.84h-.6Z" transform="translate(-34.517 -3.756)" fill="#212322"/>
        <path id="패스_76" data-name="패스 76" d="M72.167,11.066a1.616,1.616,0,0,0,1.711,1.357c1.078,0,1.51-.531,1.51-1.258s-.291-1.1-1.64-1.455c-1.573-.393-1.943-.908-1.943-1.766A1.769,1.769,0,0,1,73.8,6.221a1.966,1.966,0,0,1,2.112,1.817h-.6a1.451,1.451,0,0,0-1.534-1.223c-1.05,0-1.353.558-1.353,1.078,0,.6.291.9,1.487,1.207,1.7.44,2.124,1.038,2.124,2.014a1.928,1.928,0,0,1-2.163,1.907,2.145,2.145,0,0,1-2.316-1.947Z" transform="translate(-43.411 -3.771)" fill="#212322"/>
        <path id="패스_77" data-name="패스 77" d="M90.578,9.6c0,1.805-.928,3.414-2.725,3.414-1.628,0-2.643-1.439-2.643-3.4,0-1.856.952-3.4,2.7-3.4,1.6,0,2.666,1.349,2.666,3.386m-4.719,0c0,1.546.787,2.792,2.053,2.792s2.041-1.156,2.041-2.792c-.012-1.5-.735-2.777-2.073-2.777s-2.029,1.231-2.029,2.788" transform="translate(-51.699 -3.768)" fill="#212322"/>
        <path id="패스_78" data-name="패스 78" d="M101.75,7.987V6.351h.59c.024.208.035,1.054.024,1.235a1.966,1.966,0,0,1,2.006-1.392c1.074,0,2.025.653,2.025,2.442v4.2h-.613v-4.1c0-1.152-.448-1.907-1.5-1.907-1.435,0-1.931,1.286-1.931,2.7V12.84h-.6Z" transform="translate(-61.735 -3.756)" fill="#212322"/>
        <path id="패스_79" data-name="패스 79" d="M145.528,7.661a1.085,1.085,0,0,0-.649.193,1.514,1.514,0,0,0-.429.5,2.171,2.171,0,0,0-.232.669,3.833,3.833,0,0,0-.071.728,3.664,3.664,0,0,0,.071.708,2.242,2.242,0,0,0,.22.653,1.408,1.408,0,0,0,.417.48,1.074,1.074,0,0,0,.641.185,1.129,1.129,0,0,0,.893-.354,1.738,1.738,0,0,0,.393-.952h1.573a3.036,3.036,0,0,1-.912,1.966,2.788,2.788,0,0,1-1.931.669,2.973,2.973,0,0,1-1.231-.252,2.753,2.753,0,0,1-.944-.676,3.146,3.146,0,0,1-.6-1.038,3.89,3.89,0,0,1-.216-1.325,4.63,4.63,0,0,1,.2-1.388,3.205,3.205,0,0,1,.59-1.105,2.682,2.682,0,0,1,.975-.72,3,3,0,0,1,1.278-.26,3.473,3.473,0,0,1,1.011.149,2.635,2.635,0,0,1,.857.444,2.36,2.36,0,0,1,.621.759,2.572,2.572,0,0,1,.275,1.074h-1.573a1.121,1.121,0,0,0-1.2-1.105" transform="translate(-86.47 -3.846)" fill="#212322"/>
        <path id="패스_80" data-name="패스 80" d="M158.939,8.471a2.179,2.179,0,0,1,.307-1.034,2,2,0,0,1,.637-.657,2.682,2.682,0,0,1,.873-.354,4.546,4.546,0,0,1,.975-.106,6.4,6.4,0,0,1,.9.067,2.623,2.623,0,0,1,.834.267,1.7,1.7,0,0,1,.613.555,1.628,1.628,0,0,1,.24.936v3.347a7.1,7.1,0,0,0,.047.834,1.573,1.573,0,0,0,.157.594h-1.66a2.627,2.627,0,0,1-.075-.3,2.713,2.713,0,0,1-.039-.319,2.069,2.069,0,0,1-.912.61,3.339,3.339,0,0,1-1.074.177,2.678,2.678,0,0,1-.787-.114,1.679,1.679,0,0,1-.637-.35,1.542,1.542,0,0,1-.429-.594,2.183,2.183,0,0,1-.153-.857,2.006,2.006,0,0,1,.177-.9,1.53,1.53,0,0,1,.456-.566,1.939,1.939,0,0,1,.637-.319,6.649,6.649,0,0,1,.724-.169c.244-.039.484-.075.72-.1a4.09,4.09,0,0,0,.625-.11,1.062,1.062,0,0,0,.437-.22.5.5,0,0,0,.146-.417,1.03,1.03,0,0,0-.083-.452.7.7,0,0,0-.228-.26.857.857,0,0,0-.334-.126,2.608,2.608,0,0,0-.393-.031,1.148,1.148,0,0,0-.751.224,1.046,1.046,0,0,0-.319.747Zm3.74,1.306a.665.665,0,0,1-.256.153,2.513,2.513,0,0,1-.33.094c-.118.024-.24.047-.37.063s-.26.035-.393.059a2.851,2.851,0,0,0-.358.1,1.022,1.022,0,0,0-.311.165.787.787,0,0,0-.208.267.921.921,0,0,0-.083.413.862.862,0,0,0,.083.393.657.657,0,0,0,.216.256.967.967,0,0,0,.319.13,1.966,1.966,0,0,0,.393.035,1.31,1.31,0,0,0,.739-.173,1.09,1.09,0,0,0,.393-.417,1.455,1.455,0,0,0,.153-.492,3.469,3.469,0,0,0,.028-.393Z" transform="translate(-96.322 -3.835)" fill="#212322"/>
        <path id="패스_81" data-name="패스 81" d="M177.318,6.493v1.18h.024a2.258,2.258,0,0,1,.311-.555,2.034,2.034,0,0,1,.444-.437,2.167,2.167,0,0,1,.523-.263,1.774,1.774,0,0,1,.594-.1,1.121,1.121,0,0,1,.354.063v1.64c-.079,0-.169-.031-.275-.043a2.8,2.8,0,0,0-.307,0,1.636,1.636,0,0,0-.755.161,1.377,1.377,0,0,0-.484.413,1.9,1.9,0,0,0-.267.653,4.042,4.042,0,0,0-.079.81v2.9h-1.62V6.493Z" transform="translate(-106.651 -3.834)" fill="#212322"/>
        <path id="패스_82" data-name="패스 82" d="M190.052,8.58a1.742,1.742,0,0,1-.747.751,2.309,2.309,0,0,1-1.042.232,2.332,2.332,0,0,1-1.18-.283,2.36,2.36,0,0,1-.826-.755,3.646,3.646,0,0,1-.492-1.1A5.03,5.03,0,0,1,185.6,6.13a4.72,4.72,0,0,1,.165-1.251,3.379,3.379,0,0,1,.492-1.062,2.486,2.486,0,0,1,.83-.743,2.281,2.281,0,0,1,1.14-.279,2.12,2.12,0,0,1,1,.244,1.809,1.809,0,0,1,.747.712H190V.53h1.616V9.406h-1.53V8.58ZM189.985,5.4a1.994,1.994,0,0,0-.236-.645,1.361,1.361,0,0,0-.429-.456,1.18,1.18,0,0,0-.661-.173,1.259,1.259,0,0,0-.673.173,1.321,1.321,0,0,0-.437.46,2.021,2.021,0,0,0-.22.672,3.731,3.731,0,0,0-.075.767,3.409,3.409,0,0,0,.079.743,2.128,2.128,0,0,0,.256.665,1.518,1.518,0,0,0,.444.476,1.148,1.148,0,0,0,.645.177,1.18,1.18,0,0,0,.669-.173,1.282,1.282,0,0,0,.429-.464A2.269,2.269,0,0,0,190,6.956a4.457,4.457,0,0,0,.067-.787A4.368,4.368,0,0,0,190,5.407" transform="translate(-112.609 -0.322)" fill="#212322"/>
        <path id="패스_83" data-name="패스 83" d="M124.231.39l-2.155,6.847-2.2-6.808L119.858.39H117.75V9.313h1.475V2.773l2.167,6.5.012.039h1.262l2.179-6.544V9.313h1.475V.39Z" transform="translate(-71.442 -0.237)" fill="#212322"/>
      </g>
    </g>
    <g id="그룹_412" data-name="그룹 412" transform="translate(-1.001 -2.846)">
      <line id="선_1" data-name="선 1" x2="6.433" y2="9.26" transform="translate(133.569 472.846)" fill="none" stroke="#333" stroke-width="0.5"/>
      <line id="선_2" data-name="선 2" x1="6.433" y2="9.26" transform="translate(133.569 472.846)" fill="none" stroke="#333" stroke-width="0.5"/>
    </g>
  </g>
</svg>
