<svg id="레이어_1" data-name="레이어 1" xmlns="http://www.w3.org/2000/svg" width="132.518" height="15.532" viewBox="0 0 132.518 15.532">
  <path id="패스_2" data-name="패스 2" d="M0,0H4.941C7.652,0,9.11,1.544,9.11,3.747A3.3,3.3,0,0,1,6.92,7.078a3.793,3.793,0,0,1,2.7,3.767c0,3.048-2.131,4.393-4.618,4.393H0ZM4.578,6.55c2.447,0,3.377-.976,3.377-2.738A2.647,2.647,0,0,0,5,1.088H1.075V6.55Zm-3.5,7.6H5.033c1.86,0,3.424-1,3.424-3.239,0-1.939-1.154-3.3-4.011-3.3H1.075Z" fill="#212322"/>
  <path id="패스_3" data-name="패스 3" d="M24.4,15.307a13.635,13.635,0,0,0,.139,2.065h-.97a7.2,7.2,0,0,1-.185-1.676,3.3,3.3,0,0,1-3.3,1.939,3.12,3.12,0,0,1-3.358-3.265c0-2.395,1.715-3.483,4.756-3.483H23.4V9.752c0-1.088-.3-2.546-2.639-2.546A2.246,2.246,0,0,0,18.2,9.251H17.19a3.229,3.229,0,0,1,3.6-3.041C23.1,6.21,24.4,7.252,24.4,9.647Zm-1-3.483H21.425c-2.243,0-3.641.66-3.641,2.5a2.183,2.183,0,0,0,2.322,2.3c2.9,0,3.3-2.065,3.3-4.42Z" transform="translate(-5.692 -2.114)" fill="#212322"/>
  <path id="패스_4" data-name="패스 4" d="M32.33,9.429V6.467h.989c0,.35.04,1.049.04,2.441a3.866,3.866,0,0,1,3.5-2.7V7.391c-2.1.152-3.523,1.715-3.523,4.308v5.653H32.33Z" transform="translate(-11.003 -2.114)" fill="#212322"/>
  <path id="패스_5" data-name="패스 5" d="M49.483,14.311v3.173h-.917a17.231,17.231,0,0,1-.059-1.893,3.128,3.128,0,0,1-3.3,2.157c-1.451,0-3.3-.607-3.3-3.958V6.6h1v6.946c0,1.59.462,3.133,2.467,3.133,2.269,0,3.12-1.372,3.12-4.486V6.6H49.5Z" transform="translate(-14.264 -2.246)" fill="#212322"/>
  <path id="패스_6" data-name="패스 6" d="M56.89,9.2V6.46h.989c.04.35.059,1.768.04,2.071A3.3,3.3,0,0,1,61.283,6.2c1.8,0,3.4,1.1,3.4,4.1v7.052H63.651v-6.88c0-1.933-.752-3.2-2.513-3.2C58.73,7.265,57.9,9.422,57.9,11.8v5.548H56.89Z" transform="translate(-19.362 -2.107)" fill="#212322"/>
  <path id="패스_7" data-name="패스 7" d="M72.586,14.352a2.711,2.711,0,0,0,2.869,2.276c1.807,0,2.533-.891,2.533-2.111s-.488-1.847-2.751-2.441c-2.639-.66-3.259-1.524-3.259-2.962s1.049-2.889,3.338-2.889a3.3,3.3,0,0,1,3.542,3.048H77.85a2.434,2.434,0,0,0-2.573-2.052c-1.761,0-2.269.937-2.269,1.807,0,1,.488,1.5,2.493,2.025,2.85.739,3.562,1.741,3.562,3.377,0,1.979-1.5,3.2-3.628,3.2a3.6,3.6,0,0,1-3.885-3.265Z" transform="translate(-24.352 -2.115)" fill="#212322"/>
  <path id="패스_8" data-name="패스 8" d="M94.214,11.89c0,3.028-1.557,5.726-4.571,5.726-2.731,0-4.433-2.414-4.433-5.706,0-3.114,1.6-5.7,4.532-5.7,2.691,0,4.472,2.263,4.472,5.68m-7.916,0c0,2.592,1.319,4.684,3.443,4.684s3.424-1.939,3.424-4.684c-.02-2.52-1.234-4.657-3.476-4.657s-3.4,2.065-3.4,4.677" transform="translate(-29.001 -2.114)" fill="#212322"/>
  <path id="패스_9" data-name="패스 9" d="M101.75,9.2V6.46h.989c.04.35.059,1.768.04,2.071A3.3,3.3,0,0,1,106.143,6.2c1.8,0,3.4,1.1,3.4,4.1v7.052h-1.029v-6.88c0-1.933-.752-3.2-2.513-3.2-2.408,0-3.239,2.157-3.239,4.532v5.548H101.75Z" transform="translate(-34.63 -2.107)" fill="#212322"/>
  <path id="패스_10" data-name="패스 10" d="M147.566,8.556a1.821,1.821,0,0,0-1.088.323,2.54,2.54,0,0,0-.719.838,3.642,3.642,0,0,0-.389,1.121,6.426,6.426,0,0,0-.119,1.22,6.141,6.141,0,0,0,.119,1.187,3.76,3.76,0,0,0,.369,1.1,2.362,2.362,0,0,0,.7.8,1.8,1.8,0,0,0,1.075.31,1.893,1.893,0,0,0,1.5-.594,2.916,2.916,0,0,0,.66-1.6h2.639a5.093,5.093,0,0,1-1.53,3.3,4.677,4.677,0,0,1-3.239,1.121,4.987,4.987,0,0,1-2.065-.422,4.617,4.617,0,0,1-1.583-1.135,5.277,5.277,0,0,1-1.009-1.741,6.525,6.525,0,0,1-.363-2.223,7.764,7.764,0,0,1,.33-2.329,5.377,5.377,0,0,1,.989-1.854,4.5,4.5,0,0,1,1.636-1.207,5.04,5.04,0,0,1,2.144-.435,5.825,5.825,0,0,1,1.7.251,4.42,4.42,0,0,1,1.438.745,3.958,3.958,0,0,1,1.042,1.273,4.314,4.314,0,0,1,.462,1.8h-2.639a1.88,1.88,0,0,0-2.012-1.854" transform="translate(-48.506 -2.157)" fill="#212322"/>
  <path id="패스_11" data-name="패스 11" d="M159.062,9.928a3.655,3.655,0,0,1,.515-1.735,3.351,3.351,0,0,1,1.069-1.1A4.5,4.5,0,0,1,162.11,6.5a7.626,7.626,0,0,1,1.636-.178,10.726,10.726,0,0,1,1.511.112,4.4,4.4,0,0,1,1.4.449,2.843,2.843,0,0,1,1.029.93,2.731,2.731,0,0,1,.4,1.57v5.614a11.92,11.92,0,0,0,.079,1.4,2.638,2.638,0,0,0,.264,1h-2.784a4.395,4.395,0,0,1-.125-.508,4.548,4.548,0,0,1-.066-.534,3.47,3.47,0,0,1-1.53,1.022,5.6,5.6,0,0,1-1.8.3,4.492,4.492,0,0,1-1.319-.191,2.817,2.817,0,0,1-1.069-.587,2.586,2.586,0,0,1-.719-1,3.661,3.661,0,0,1-.257-1.438,3.365,3.365,0,0,1,.3-1.511,2.566,2.566,0,0,1,.765-.95,3.252,3.252,0,0,1,1.069-.534,11.155,11.155,0,0,1,1.214-.284c.409-.066.811-.125,1.207-.165a6.861,6.861,0,0,0,1.049-.185,1.781,1.781,0,0,0,.732-.369.831.831,0,0,0,.244-.7A1.728,1.728,0,0,0,165.2,9a1.174,1.174,0,0,0-.383-.435,1.438,1.438,0,0,0-.561-.211,4.374,4.374,0,0,0-.66-.053,1.926,1.926,0,0,0-1.26.376,1.755,1.755,0,0,0-.534,1.253Zm6.273,2.19a1.115,1.115,0,0,1-.429.257,4.214,4.214,0,0,1-.554.158c-.2.04-.4.079-.62.106s-.435.059-.66.1a4.782,4.782,0,0,0-.6.172,1.715,1.715,0,0,0-.521.277,1.319,1.319,0,0,0-.35.449,1.544,1.544,0,0,0-.139.693,1.445,1.445,0,0,0,.139.66,1.1,1.1,0,0,0,.363.429,1.623,1.623,0,0,0,.534.218,3.3,3.3,0,0,0,.66.059,2.2,2.2,0,0,0,1.24-.29,1.827,1.827,0,0,0,.66-.7,2.441,2.441,0,0,0,.257-.825,5.822,5.822,0,0,0,.046-.66Z" transform="translate(-54.032 -2.151)" fill="#212322"/>
  <path id="패스_12" data-name="패스 12" d="M178.359,6.61V8.589h.04a3.787,3.787,0,0,1,.521-.93,3.411,3.411,0,0,1,.745-.732,3.635,3.635,0,0,1,.877-.442,2.975,2.975,0,0,1,1-.165,1.88,1.88,0,0,1,.594.106V9.176c-.132,0-.284-.053-.462-.073a4.69,4.69,0,0,0-.515,0,2.744,2.744,0,0,0-1.267.27,2.309,2.309,0,0,0-.811.693,3.193,3.193,0,0,0-.449,1.1,6.781,6.781,0,0,0-.132,1.359v4.868H175.78V6.61Z" transform="translate(-59.826 -2.151)" fill="#212322"/>
  <path id="패스_13" data-name="패스 13" d="M193.067,14.033a2.922,2.922,0,0,1-1.253,1.26,3.872,3.872,0,0,1-1.748.389,3.912,3.912,0,0,1-1.979-.475,3.958,3.958,0,0,1-1.385-1.267,6.115,6.115,0,0,1-.825-1.847,8.437,8.437,0,0,1-.277-2.17,7.916,7.916,0,0,1,.277-2.1,5.667,5.667,0,0,1,.825-1.781A4.169,4.169,0,0,1,188.093,4.8a3.826,3.826,0,0,1,1.913-.468,3.556,3.556,0,0,1,1.676.409,3.035,3.035,0,0,1,1.253,1.194h.04V.53h2.711V15.418H193.12V14.033Zm-.112-5.33a3.344,3.344,0,0,0-.4-1.082,2.282,2.282,0,0,0-.719-.765,1.979,1.979,0,0,0-1.108-.29,2.111,2.111,0,0,0-1.128.29,2.216,2.216,0,0,0-.732.772,3.391,3.391,0,0,0-.369,1.128,6.261,6.261,0,0,0-.125,1.286,5.719,5.719,0,0,0,.132,1.247,3.569,3.569,0,0,0,.429,1.115,2.546,2.546,0,0,0,.745.8,1.926,1.926,0,0,0,1.082.3,1.979,1.979,0,0,0,1.121-.29,2.151,2.151,0,0,0,.719-.778,3.807,3.807,0,0,0,.383-1.121,7.481,7.481,0,0,0,.112-1.319,7.328,7.328,0,0,0-.112-1.28" transform="translate(-63.168 -0.18)" fill="#212322"/>
  <path id="패스_14" data-name="패스 14" d="M128.621.39l-3.615,11.485L121.312.456,121.286.39H117.75V15.358h2.474V4.388l3.635,10.9.02.066H126L129.65,4.381V15.358h2.474V.39Z" transform="translate(-40.076 -0.133)" fill="#212322"/>
</svg>
