<svg xmlns="http://www.w3.org/2000/svg" viewBox="0 0 148.64 153.13"><defs><style>.cls-1{fill:#5b89b4;}</style></defs><g id="Layer_2" data-name="Layer 2"><g id="Layer_1-2" data-name="Layer 1"><path class="cls-1" d="M48.49,15.89a11.83,11.83,0,1,1-16.4-3.36A11.84,11.84,0,0,1,48.49,15.89Z"/><path class="cls-1" d="M119.8,124.15a11.83,11.83,0,1,1-16.39-3.37A11.84,11.84,0,0,1,119.8,124.15Z"/><path class="cls-1" d="M17.79,42.67a11.83,11.83,0,1,1-15.24,6.9A11.83,11.83,0,0,1,17.79,42.67Z"/><path class="cls-1" d="M139.1,88.33a11.82,11.82,0,1,1-15.22,6.9A11.83,11.83,0,0,1,139.1,88.33Z"/><path class="cls-1" d="M8.7,82.38A11.82,11.82,0,1,1,.42,96.91,11.83,11.83,0,0,1,8.7,82.38Z"/><path class="cls-1" d="M133.68,48a11.82,11.82,0,1,1-8.26,14.53A11.82,11.82,0,0,1,133.68,48Z"/><path class="cls-1" d="M24.68,119.85a11.83,11.83,0,1,1,1.85,16.6A11.79,11.79,0,0,1,24.68,119.85Z"/><path class="cls-1" d="M105.58,18.57a11.83,11.83,0,1,1,1.87,16.62A11.83,11.83,0,0,1,105.58,18.57Z"/><path class="cls-1" d="M59.64,140.76a11.82,11.82,0,1,1,11.27,12.36A11.81,11.81,0,0,1,59.64,140.76Z"/><path class="cls-1" d="M65.55,11.28A11.83,11.83,0,1,1,76.84,23.64,11.83,11.83,0,0,1,65.55,11.28Z"/><path class="cls-1" d="M100.81,103.19a7.33,7.33,0,0,1-2.08,10.14h0a7.35,7.35,0,0,1-10.14-2.09L48,49.67A7.34,7.34,0,0,1,50.1,39.54h0a7.27,7.27,0,0,1,10.13,2.07Z"/><path class="cls-1" d="M111.43,82.6A7.31,7.31,0,0,1,115.7,92h0a7.31,7.31,0,0,1-9.43,4.27l-69-26A7.32,7.32,0,0,1,33,60.88h0a7.32,7.32,0,0,1,9.41-4.27Z"/><path class="cls-1" d="M107.89,59.71a7.32,7.32,0,0,1,9,5.1h0a7.33,7.33,0,0,1-5.13,9L40.68,93.36a7.35,7.35,0,0,1-9-5.1h0a7.33,7.33,0,0,1,5.13-9Z"/><path class="cls-1" d="M91.57,43.22a7.37,7.37,0,0,1,10.31-1.14h0A7.34,7.34,0,0,1,103,52.39L57,110a7.35,7.35,0,0,1-10.3,1.15h0a7.33,7.33,0,0,1-1.15-10.29Z"/><path class="cls-1" d="M68.73,39.51a7.33,7.33,0,0,1,7.64-7h0a7.35,7.35,0,0,1,7,7.65L80,113.84a7.32,7.32,0,0,1-7.66,7h0a7.33,7.33,0,0,1-7-7.65Z"/></g></g></svg>